<svg xmlns="http://www.w3.org/2000/svg"
 xmlns:xlink="http://www.w3.org/1999/xlink"
 width="23px" height="23px"  viewBox="0 0 23 23">
<path fill-rule="evenodd"  fill="#4d4d4d"
 d="M7.0005493,17.000244 C5.9004517,17.000244 5.010376,17.900146 5.010376,19.000244 C5.010376,20.100342 5.9004517,21.000244 7.0005493,21.000244 C8.099426,21.000244 8.998657,20.100342 8.998657,19.000244 C8.998657,17.900146 8.099426,17.000244 7.0005493,17.000244 C7.0005493,17.000244 7.0005493,17.000244 7.0005493,17.000244 C7.0005493,17.000244 7.0005493,17.000244 7.0005493,17.000244 ZM1.0001831,1.0002441 C1.0001831,1.0002441 1.0001831,3.0002441 1.0001831,3.0002441 C1.0001831,3.0002441 3.0006714,3.0002441 3.0006714,3.0002441 C3.0006714,3.0002441 6.6000977,10.589844 6.6000977,10.589844 C6.6000977,10.589844 5.2491455,13.040527 5.2491455,13.040527 C5.0907593,13.320068 5.0,13.650391 5.0,14.000244 C5.0,15.100342 5.9004517,15.999756 7.0005493,15.999756 C7.0005493,15.999756 18.998901,15.999756 18.998901,15.999756 C18.998901,15.999756 18.998901,14.000244 18.998901,14.000244 C18.998901,14.000244 7.4213867,14.000244 7.4213867,14.000244 C7.279297,14.000244 7.170166,13.890381 7.170166,13.750488 C7.170166,13.750488 7.2001343,13.630127 7.2001343,13.630127 C7.2001343,13.630127 8.099426,12.000244 8.099426,12.000244 C8.099426,12.000244 15.55072,12.000244 15.55072,12.000244 C16.300781,12.000244 16.961304,11.590332 17.299988,10.970215 C17.299988,10.970215 20.878723,4.4799805 20.878723,4.4799805 C20.95996,4.340576 21.000305,4.170166 21.000305,4.000244 C21.000305,3.4501953 20.55066,3.0002441 20.001099,3.0002441 C20.001099,3.0002441 5.210022,3.0002441 5.210022,3.0002441 C5.210022,3.0002441 4.2703857,1.0002441 4.2703857,1.0002441 C4.2703857,1.0002441 1.0001831,1.0002441 1.0001831,1.0002441 C1.0001831,1.0002441 1.0001831,1.0002441 1.0001831,1.0002441 C1.0001831,1.0002441 1.0001831,1.0002441 1.0001831,1.0002441 ZM17.000427,17.000244 C15.900391,17.000244 15.011475,17.900146 15.011475,19.000244 C15.011475,20.100342 15.900391,21.000244 17.000427,21.000244 C18.100525,21.000244 18.998901,20.100342 18.998901,19.000244 C18.998901,17.900146 18.100525,17.000244 17.000427,17.000244 C17.000427,17.000244 17.000427,17.000244 17.000427,17.000244 C17.000427,17.000244 17.000427,17.000244 17.000427,17.000244 Z"/>
</svg>