<svg xmlns="http://www.w3.org/2000/svg"
 xmlns:xlink="http://www.w3.org/1999/xlink"
 width="11px" height="17px"  viewBox="0 0 11 17">
<path
 d="M7.1879883,15.994141 C7.1879883,15.994141 7.1879883,9.15625 7.1879883,9.15625 C7.1879883,9.15625 9.542358,9.15625 9.542358,9.15625 C9.542358,9.15625 9.896484,6.491699 9.896484,6.491699 C9.896484,6.491699 7.1879883,6.491699 7.1879883,6.491699 C7.1879883,6.491699 7.1879883,4.7905273 7.1879883,4.7905273 C7.1879883,4.0185547 7.408325,3.493164 8.543457,3.493164 C8.543457,3.493164 9.991089,3.4921875 9.991089,3.4921875 C9.991089,3.4921875 9.991089,1.1088867 9.991089,1.1088867 C9.741943,1.0761719 8.880615,1.0039062 7.881714,1.0039062 C5.7928467,1.0039062 4.3635254,2.2456055 4.3635254,4.526367 C4.3635254,4.526367 4.3635254,6.491699 4.3635254,6.491699 C4.3635254,6.491699 1.9996338,6.491699 1.9996338,6.491699 C1.9996338,6.491699 1.9996338,9.15625 1.9996338,9.15625 C1.9996338,9.15625 4.3635254,9.15625 4.3635254,9.15625 C4.3635254,9.15625 4.3635254,15.994141 4.3635254,15.994141 C4.3635254,15.994141 7.1879883,15.994141 7.1879883,15.994141 Z"/>
</svg>