<?xml version="1.0" encoding="UTF-8"?>
<svg xmlns="http://www.w3.org/2000/svg" xmlns:xlink="http://www.w3.org/1999/xlink" width="18pt" height="18pt" viewBox="0 0 18 18" version="1.1">
<g id="surface1">
<path style=" stroke:none;fill-rule:nonzero;fill-opacity:1;" d="M 7.3125 10.125 L 5.90625 10.125 L 5.90625 9.28125 C 5.90625 9.125 5.78125 9 5.625 9 L 5.34375 9 L 5.34375 6.46875 L 5.625 6.46875 C 5.78125 6.46875 5.90625 6.34375 5.90625 6.1875 L 5.90625 5.222656 C 5.914062 5.113281 5.992188 5.011719 6.097656 4.980469 C 6.660156 4.78125 7.03125 4.25 7.03125 3.65625 L 7.03125 0.84375 C 7.03125 0.6875 6.90625 0.5625 6.75 0.5625 L 2.25 0.5625 C 2.09375 0.5625 1.96875 0.6875 1.96875 0.84375 L 1.96875 3.65625 C 1.96875 4.25 2.339844 4.78125 2.902344 4.980469 C 3.007812 5.011719 3.085938 5.113281 3.09375 5.222656 L 3.09375 6.1875 C 3.09375 6.34375 3.21875 6.46875 3.375 6.46875 L 3.65625 6.46875 L 3.65625 9 L 3.375 9 C 3.21875 9 3.09375 9.125 3.09375 9.28125 L 3.09375 10.125 L 1.6875 10.125 C 1.53125 10.125 1.40625 10.25 1.40625 10.40625 L 1.40625 13.238281 C 1.410156 14.71875 2.1875 16.089844 3.453125 16.859375 L 4.355469 17.398438 C 4.445312 17.453125 4.554688 17.453125 4.644531 17.398438 L 5.546875 16.859375 C 6.8125 16.089844 7.589844 14.71875 7.59375 13.238281 L 7.59375 10.40625 C 7.59375 10.25 7.46875 10.125 7.3125 10.125 Z M 3.089844 4.449219 C 2.757812 4.332031 2.53125 4.011719 2.53125 3.65625 L 2.53125 1.125 L 6.46875 1.125 L 6.46875 3.65625 C 6.46875 4.011719 6.242188 4.332031 5.910156 4.449219 C 5.574219 4.558594 5.347656 4.871094 5.34375 5.222656 L 5.34375 5.90625 L 3.65625 5.90625 L 3.65625 5.222656 C 3.652344 4.871094 3.425781 4.558594 3.089844 4.449219 Z M 4.78125 6.46875 L 4.78125 9 L 4.21875 9 L 4.21875 6.46875 Z M 3.65625 9.5625 L 5.34375 9.5625 L 5.34375 12.089844 C 5.34375 12.601562 5.070312 13.066406 4.625 13.316406 L 4.5 13.386719 L 4.375 13.316406 C 3.929688 13.066406 3.65625 12.601562 3.65625 12.089844 Z M 7.03125 13.238281 C 7.027344 14.523438 6.355469 15.710938 5.257812 16.375 L 4.5 16.824219 L 3.742188 16.375 C 2.644531 15.710938 1.972656 14.523438 1.96875 13.238281 L 1.96875 10.6875 L 3.09375 10.6875 L 3.09375 12.089844 C 3.09375 12.800781 3.476562 13.457031 4.097656 13.804688 L 4.363281 13.957031 C 4.445312 14.003906 4.554688 14.003906 4.636719 13.957031 L 4.902344 13.804688 C 5.523438 13.457031 5.90625 12.800781 5.90625 12.089844 L 5.90625 10.6875 L 7.03125 10.6875 Z M 7.03125 13.238281 "/>
<path style=" stroke:none;fill-rule:nonzero;fill-opacity:1;" d="M 5.0625 4.21875 C 5.53125 4.21875 5.90625 3.84375 5.90625 3.375 L 5.90625 1.96875 C 5.90625 1.8125 5.78125 1.6875 5.625 1.6875 L 3.375 1.6875 C 3.21875 1.6875 3.09375 1.8125 3.09375 1.96875 L 3.09375 3.375 C 3.09375 3.84375 3.46875 4.21875 3.9375 4.21875 Z M 3.65625 3.375 L 3.65625 2.25 L 5.34375 2.25 L 5.34375 3.375 C 5.34375 3.53125 5.21875 3.65625 5.0625 3.65625 L 3.9375 3.65625 C 3.78125 3.65625 3.65625 3.53125 3.65625 3.375 Z M 3.65625 3.375 "/>
<path style=" stroke:none;fill-rule:nonzero;fill-opacity:1;" d="M 16.875 10.125 L 16.222656 10.125 L 16.308594 9.3125 C 16.320312 9.230469 16.292969 9.15625 16.238281 9.09375 C 16.1875 9.035156 16.113281 9 16.03125 9 L 16.007812 9 C 15.871094 8.1875 15.167969 7.59375 14.34375 7.59375 C 14.308594 7.59375 14.28125 7.597656 14.25 7.601562 C 14.011719 6.921875 13.375 6.46875 12.65625 6.46875 C 11.9375 6.46875 11.300781 6.925781 11.0625 7.601562 C 11.03125 7.601562 11.003906 7.59375 10.96875 7.59375 C 10.144531 7.59375 9.441406 8.1875 9.304688 9 L 9.28125 9 C 9.199219 9 9.125 9.035156 9.074219 9.09375 C 9.019531 9.15625 8.992188 9.230469 9.003906 9.3125 L 9.089844 10.125 L 8.4375 10.125 C 8.28125 10.125 8.15625 10.25 8.15625 10.40625 L 8.15625 10.6875 C 8.15625 11.890625 8.636719 13.039062 9.492188 13.882812 L 9.847656 17.1875 C 9.859375 17.328125 9.980469 17.4375 10.125 17.4375 L 15.1875 17.4375 C 15.332031 17.4375 15.453125 17.328125 15.464844 17.1875 L 15.820312 13.882812 C 16.675781 13.039062 17.15625 11.890625 17.15625 10.6875 L 17.15625 10.40625 C 17.15625 10.25 17.03125 10.125 16.875 10.125 Z M 8.71875 10.6875 L 9.148438 10.6875 L 9.382812 12.875 C 8.945312 12.226562 8.71875 11.464844 8.71875 10.6875 Z M 14.203125 8.832031 C 14.292969 8.617188 14.34375 8.386719 14.34375 8.15625 C 14.855469 8.15625 15.300781 8.503906 15.429688 9 L 13.945312 9 C 14.058594 9 14.160156 8.933594 14.203125 8.832031 Z M 10.96875 8.15625 C 11.210938 8.15625 11.449219 8.234375 11.644531 8.382812 C 11.765625 8.476562 11.941406 8.449219 12.039062 8.324219 C 12.132812 8.203125 12.105469 8.027344 11.980469 7.929688 C 11.867188 7.851562 11.746094 7.78125 11.617188 7.726562 C 11.808594 7.265625 12.28125 6.984375 12.777344 7.039062 C 13.273438 7.089844 13.675781 7.464844 13.761719 7.957031 C 13.773438 8.023438 13.78125 8.089844 13.78125 8.15625 C 13.78125 8.3125 13.75 8.464844 13.691406 8.605469 C 13.625 8.746094 13.691406 8.914062 13.832031 8.980469 C 13.867188 8.992188 13.90625 9 13.941406 9 L 10.96875 9 C 11.125 9 11.25 8.875 11.25 8.71875 C 11.25 8.5625 11.125 8.4375 10.96875 8.4375 L 10.6875 8.4375 C 10.53125 8.4375 10.40625 8.5625 10.40625 8.71875 C 10.40625 8.875 10.53125 9 10.6875 9 L 9.882812 9 C 10.011719 8.503906 10.457031 8.15625 10.96875 8.15625 Z M 14.933594 16.875 L 10.378906 16.875 L 10.109375 14.394531 C 11.644531 15.453125 13.667969 15.453125 15.203125 14.394531 Z M 15.28125 13.609375 C 13.792969 14.960938 11.519531 14.960938 10.03125 13.609375 L 9.714844 10.6875 L 15.597656 10.6875 Z M 15.660156 10.125 L 9.652344 10.125 L 9.59375 9.5625 L 15.71875 9.5625 Z M 15.929688 12.875 L 16.164062 10.6875 L 16.59375 10.6875 C 16.59375 11.464844 16.367188 12.226562 15.929688 12.875 Z M 15.929688 12.875 "/>
<path style=" stroke:none;fill-rule:nonzero;fill-opacity:1;" d="M 12.65625 8.4375 L 12.9375 8.4375 C 13.09375 8.4375 13.21875 8.3125 13.21875 8.15625 C 13.21875 8 13.09375 7.875 12.9375 7.875 L 12.65625 7.875 C 12.5 7.875 12.375 8 12.375 8.15625 C 12.375 8.3125 12.5 8.4375 12.65625 8.4375 Z M 12.65625 8.4375 "/>
<path style=" stroke:none;fill-rule:nonzero;fill-opacity:1;" d="M 14.90625 7.3125 L 15.1875 7.3125 C 15.34375 7.3125 15.46875 7.1875 15.46875 7.03125 C 15.46875 6.875 15.34375 6.75 15.1875 6.75 L 14.90625 6.75 C 14.75 6.75 14.625 6.875 14.625 7.03125 C 14.625 7.1875 14.75 7.3125 14.90625 7.3125 Z M 14.90625 7.3125 "/>
<path style=" stroke:none;fill-rule:nonzero;fill-opacity:1;" d="M 10.40625 7.3125 L 10.6875 7.3125 C 10.84375 7.3125 10.96875 7.1875 10.96875 7.03125 C 10.96875 6.875 10.84375 6.75 10.6875 6.75 L 10.40625 6.75 C 10.25 6.75 10.125 6.875 10.125 7.03125 C 10.125 7.1875 10.25 7.3125 10.40625 7.3125 Z M 10.40625 7.3125 "/>
<path style=" stroke:none;fill-rule:nonzero;fill-opacity:1;" d="M 16.3125 8.4375 L 16.59375 8.4375 C 16.75 8.4375 16.875 8.3125 16.875 8.15625 C 16.875 8 16.75 7.875 16.59375 7.875 L 16.3125 7.875 C 16.15625 7.875 16.03125 8 16.03125 8.15625 C 16.03125 8.3125 16.15625 8.4375 16.3125 8.4375 Z M 16.3125 8.4375 "/>
<path style=" stroke:none;fill-rule:nonzero;fill-opacity:1;" d="M 12.375 6.1875 L 12.65625 6.1875 C 12.8125 6.1875 12.9375 6.0625 12.9375 5.90625 C 12.9375 5.75 12.8125 5.625 12.65625 5.625 L 12.375 5.625 C 12.21875 5.625 12.09375 5.75 12.09375 5.90625 C 12.09375 6.0625 12.21875 6.1875 12.375 6.1875 Z M 12.375 6.1875 "/>
</g>
</svg>
