<svg xmlns="http://www.w3.org/2000/svg"
 xmlns:xlink="http://www.w3.org/1999/xlink"
 width="23px" height="24px"  viewBox="0 0 23 24">
<path fill-rule="evenodd"  fill="#4d4d4d"
 d="M17.00055,18.0 C15.900513,18.0 15.0095215,18.900146 15.0095215,20.000244 C15.0095215,21.100098 15.900513,22.000244 17.00055,22.000244 C18.099426,22.000244 18.999878,21.100098 18.999878,20.000244 C18.999878,18.900146 18.099426,18.0 17.00055,18.0 ZM5.008423,20.000244 C5.008423,21.100098 5.899719,22.000244 6.9994507,22.000244 C8.100708,22.000244 9.0,21.100098 9.0,20.000244 C9.0,18.900146 8.100708,18.0 6.9994507,18.0 C5.899719,18.0 5.008423,18.900146 5.008423,20.000244 ZM18.309448,6.000244 C18.309448,6.000244 6.15979,6.000244 6.15979,6.000244 C6.15979,6.000244 8.399963,10.729736 8.399963,10.729736 C8.399963,10.729736 8.529907,10.999756 8.529907,10.999756 C8.529907,10.999756 15.550842,10.999756 15.550842,10.999756 C15.550842,10.999756 18.309448,6.000244 18.309448,6.000244 ZM5.210144,4.0 C5.210144,4.0 20.9859,4.0 20.9859,4.0 C20.9859,4.0 21.000427,4.0 21.000427,4.0 C21.000427,4.0 21.160889,4.959961 21.160889,4.959961 C21.160889,4.959961 17.30011,11.970215 17.30011,11.970215 C16.95935,12.590088 16.300903,13.000244 15.550842,13.000244 C15.550842,13.000244 8.100708,13.000244 8.100708,13.000244 C8.100708,13.000244 7.199341,14.630127 7.199341,14.630127 C7.199341,14.630127 7.170288,14.750244 7.170288,14.750244 C7.170288,14.889648 7.2907104,14.999756 7.4194336,14.999756 C7.4194336,14.999756 18.999878,14.999756 18.999878,14.999756 C18.999878,14.999756 18.999878,17.0 18.999878,17.0 C18.999878,17.0 6.9994507,17.0 6.9994507,17.0 C5.899719,17.0 5.001343,16.100098 5.001343,14.999756 C5.001343,14.649658 5.0897217,14.320068 5.250183,14.040039 C5.250183,14.040039 6.6002197,11.590088 6.6002197,11.590088 C6.6002197,11.590088 2.999878,4.0 2.999878,4.0 C2.999878,4.0 1.0005493,4.0 1.0005493,4.0 C1.0005493,4.0 1.0005493,2.0 1.0005493,2.0 C1.0005493,2.0 4.2695923,2.0 4.2695923,2.0 C4.2695923,2.0 5.210144,4.0 5.210144,4.0 Z"/>
</svg>