<svg xmlns="http://www.w3.org/2000/svg"
 xmlns:xlink="http://www.w3.org/1999/xlink"
 width="18px" height="18px"  viewBox="0 0 18 18">
<path
 d="M12.014893,3.0 C12.014893,3.0 5.930298,3.0 5.930298,3.0 C5.045166,3.0 4.2713623,3.2768555 3.774292,3.774414 C3.2763672,4.2719727 2.9996338,5.0463867 2.9996338,5.9311523 C2.9996338,5.9311523 2.9996338,12.013672 2.9996338,12.013672 C2.9996338,12.8984375 3.2763672,13.672852 3.8300781,14.226074 C4.3826904,14.723633 5.1019287,15.0 5.9848633,15.0 C5.9848633,15.0 12.014893,15.0 12.014893,15.0 C12.898682,15.0 13.673706,14.723633 14.170532,14.226074 C14.724243,13.728516 15.000122,12.954102 15.000122,12.069336 C15.000122,12.069336 15.000122,5.986328 15.000122,5.986328 C15.000122,5.1015625 14.724243,4.3828125 14.226196,3.8295898 C13.673706,3.2768555 12.954224,3.0 12.014893,3.0 ZM16.99939,12.308594 C16.99939,13.691406 16.516846,14.89502 15.671875,15.737305 C14.827148,16.579102 13.619141,17.0 12.290649,17.0 C12.290649,17.0 5.7089844,17.0 5.7089844,17.0 C4.3814697,17.0 3.1724854,16.579102 2.3275146,15.737305 C1.4219971,14.89502 1.0002441,13.691406 1.0002441,12.308594 C1.0002441,12.308594 1.0002441,5.6918945 1.0002441,5.6918945 C1.0002441,2.9248047 2.8720703,1.0 5.7089844,1.0 C5.7089844,1.0 12.351196,1.0 12.351196,1.0 C13.739502,1.0 14.885864,1.4814453 15.730591,2.3237305 C16.578491,3.1655273 16.99939,4.3081055 16.99939,5.6918945 C16.99939,5.6918945 16.99939,12.308594 16.99939,12.308594 ZM8.999756,11.0 C10.105103,11.0 11.000244,10.10498 11.000244,9.0 C11.000244,7.895508 10.105103,7.0 8.999756,7.0 C7.895752,7.0 7.000366,7.895508 7.000366,9.0 C7.000366,10.10498 7.895752,11.0 8.999756,11.0 ZM8.970947,13.0 C6.7524414,13.0 5.000122,11.176758 5.000122,9.0 C5.000122,6.7646484 6.811157,5.0004883 8.970947,5.0004883 C11.130981,5.0004883 13.000732,6.7646484 13.000732,9.0 C13.000732,11.235352 11.189453,13.0 8.970947,13.0 ZM13.000732,6.0004883 C12.4366455,6.0004883 12.000366,5.5625 12.000366,5.0004883 C12.000366,4.4375 12.4366455,4.0004883 13.000732,4.0004883 C13.5633545,4.0004883 13.999634,4.4375 13.999634,5.0004883 C13.999634,5.5625 13.5633545,6.0004883 13.000732,6.0004883 Z"/>
</svg>