<svg xmlns="http://www.w3.org/2000/svg"
 xmlns:xlink="http://www.w3.org/1999/xlink"
 width="20px" height="13px"  viewBox="0 0 20 13">
<path
 d="M1.0003052,7.0 C1.0003052,7.0 2.9996338,7.0 2.9996338,7.0 C2.9996338,7.0 2.9996338,5.000244 2.9996338,5.000244 C2.9996338,5.000244 1.0003052,5.000244 1.0003052,5.000244 C1.0003052,5.000244 1.0003052,7.0 1.0003052,7.0 C1.0003052,7.0 1.0003052,7.0 1.0003052,7.0 C1.0003052,7.0 1.0003052,7.0 1.0003052,7.0 ZM1.0003052,11.000244 C1.0003052,11.000244 2.9996338,11.000244 2.9996338,11.000244 C2.9996338,11.000244 2.9996338,9.000244 2.9996338,9.000244 C2.9996338,9.000244 1.0003052,9.000244 1.0003052,9.000244 C1.0003052,9.000244 1.0003052,11.000244 1.0003052,11.000244 C1.0003052,11.000244 1.0003052,11.000244 1.0003052,11.000244 C1.0003052,11.000244 1.0003052,11.000244 1.0003052,11.000244 ZM1.0003052,3.0002441 C1.0003052,3.0002441 2.9996338,3.0002441 2.9996338,3.0002441 C2.9996338,3.0002441 2.9996338,1.0002441 2.9996338,1.0002441 C2.9996338,1.0002441 1.0003052,1.0002441 1.0003052,1.0002441 C1.0003052,1.0002441 1.0003052,3.0002441 1.0003052,3.0002441 C1.0003052,3.0002441 1.0003052,3.0002441 1.0003052,3.0002441 C1.0003052,3.0002441 1.0003052,3.0002441 1.0003052,3.0002441 ZM4.999878,7.0 C4.999878,7.0 18.999634,7.0 18.999634,7.0 C18.999634,7.0 18.999634,5.000244 18.999634,5.000244 C18.999634,5.000244 4.999878,5.000244 4.999878,5.000244 C4.999878,5.000244 4.999878,7.0 4.999878,7.0 C4.999878,7.0 4.999878,7.0 4.999878,7.0 C4.999878,7.0 4.999878,7.0 4.999878,7.0 ZM4.999878,11.000244 C4.999878,11.000244 18.999634,11.000244 18.999634,11.000244 C18.999634,11.000244 18.999634,9.000244 18.999634,9.000244 C18.999634,9.000244 4.999878,9.000244 4.999878,9.000244 C4.999878,9.000244 4.999878,11.000244 4.999878,11.000244 C4.999878,11.000244 4.999878,11.000244 4.999878,11.000244 C4.999878,11.000244 4.999878,11.000244 4.999878,11.000244 ZM4.999878,1.0002441 C4.999878,1.0002441 4.999878,3.0002441 4.999878,3.0002441 C4.999878,3.0002441 18.999634,3.0002441 18.999634,3.0002441 C18.999634,3.0002441 18.999634,1.0002441 18.999634,1.0002441 C18.999634,1.0002441 4.999878,1.0002441 4.999878,1.0002441 C4.999878,1.0002441 4.999878,1.0002441 4.999878,1.0002441 C4.999878,1.0002441 4.999878,1.0002441 4.999878,1.0002441 Z"/>
</svg>