<svg xmlns="http://www.w3.org/2000/svg"
 xmlns:xlink="http://www.w3.org/1999/xlink"
 width="22px" height="14px"  viewBox="0 0 22 14">
<path fill-rule="evenodd"  fill="#4d4d4d"
 d="M1.9995117,1.0002441 C1.9995117,1.0002441 1.9995117,3.0 1.9995117,3.0 C1.9995117,3.0 20.00003,3.0 20.00003,3.0 C20.00003,3.0 20.00003,1.0002441 20.00003,1.0002441 C20.00003,1.0002441 1.9995117,1.0002441 1.9995117,1.0002441 ZM1.9995117,8.0 C1.9995117,8.0 20.00003,8.0 20.00003,8.0 C20.00003,8.0 20.00003,6.000244 20.00003,6.000244 C20.00003,6.000244 1.9995117,6.000244 1.9995117,6.000244 C1.9995117,6.000244 1.9995117,8.0 1.9995117,8.0 ZM1.9995117,13.0 C1.9995117,13.0 20.00003,13.0 20.00003,13.0 C20.00003,13.0 20.00003,11.0 20.00003,11.0 C20.00003,11.0 1.9995117,11.0 1.9995117,11.0 C1.9995117,11.0 1.9995117,13.0 1.9995117,13.0 Z"/>
</svg>