<?xml version="1.0" encoding="UTF-8"?>
<svg xmlns="http://www.w3.org/2000/svg" xmlns:xlink="http://www.w3.org/1999/xlink" width="13pt" height="13pt" viewBox="0 0 13 13" version="1.1">
<g id="surface1">
<path style=" stroke:none;fill-rule:nonzero;fill-opacity:1;" d="M 12.570312 11.835938 L 9.578125 8.847656 C 10.320312 7.941406 10.765625 6.785156 10.765625 5.523438 C 10.765625 2.628906 8.417969 0.28125 5.523438 0.28125 C 2.625 0.28125 0.28125 2.628906 0.28125 5.523438 C 0.28125 8.417969 2.625 10.765625 5.523438 10.765625 C 6.785156 10.765625 7.941406 10.320312 8.84375 9.578125 L 11.835938 12.570312 C 12.039062 12.773438 12.367188 12.773438 12.570312 12.570312 C 12.773438 12.367188 12.773438 12.039062 12.570312 11.835938 Z M 5.523438 9.722656 C 3.203125 9.722656 1.320312 7.839844 1.320312 5.523438 C 1.320312 3.207031 3.203125 1.320312 5.523438 1.320312 C 7.839844 1.320312 9.726562 3.207031 9.726562 5.523438 C 9.726562 7.839844 7.839844 9.722656 5.523438 9.722656 Z M 5.523438 9.722656 "/>
</g>
</svg>
