<svg xmlns="http://www.w3.org/2000/svg"
 xmlns:xlink="http://www.w3.org/1999/xlink"
 width="1444px" height="1484px"  viewBox="0 0 1444 1484">
<path fill-rule="evenodd"  fill="#4d4d4d"
 d="M808.00006,9.0 C809.65686,9.0 810.9998,7.6569824 810.9998,5.999756 C810.9998,4.3432617 809.65686,3.0 808.00006,3.0 C806.3433,3.0 804.99854,4.3432617 804.99854,5.999756 C804.99854,7.6569824 806.3433,9.0 808.00006,9.0 ZM810.77527,10.160156 C809.98193,10.690674 809.026,11.0 808.00006,11.0 C805.2394,11.0 803.0001,8.761475 803.0001,5.999756 C803.0001,3.2385254 805.2394,1.0002441 808.00006,1.0002441 C810.76105,1.0002441 813.0012,3.2385254 813.0012,5.999756 C813.0012,7.0268555 812.69037,7.980957 812.1604,8.774902 C812.1604,8.774902 816.0007,12.623047 816.0007,12.623047 C816.0007,12.623047 814.6218,14.000488 814.6218,14.000488 C814.6218,14.000488 810.77527,10.160156 810.77527,10.160156 ZM1.998703,1483.0 C1.998703,1483.0 "/>
</svg>