<svg xmlns="http://www.w3.org/2000/svg"
 xmlns:xlink="http://www.w3.org/1999/xlink"
 width="17px" height="14px"  viewBox="0 0 17 14">
<path
 d="M15.0008545,2.5332031 C14.4782715,2.7729492 13.922485,2.9301758 13.352417,3.0004883 C13.954468,2.6269531 14.402954,2.043457 14.616211,1.3579102 C14.053345,1.7036133 13.435791,1.9472656 12.792725,2.0786133 C12.251465,1.480957 11.488892,1.1416016 10.690552,1.1430664 C9.923828,1.1479492 9.191284,1.4633789 8.6521,2.0200195 C8.11377,2.5766602 7.8132324,3.3291016 7.8183594,4.11084 C7.8183594,4.338867 7.844116,4.565918 7.8936768,4.788086 C5.5751953,4.665039 3.4224854,3.5361328 1.9736328,1.6865234 C1.2111816,3.041504 1.5981445,4.7666016 2.8616943,5.6484375 C2.4057617,5.6342773 1.9591064,5.506836 1.5611572,5.2773438 C1.5611572,5.2773438 1.5611572,5.3154297 1.5611572,5.3154297 C1.5549316,6.720703 2.5179443,7.9365234 3.8659668,8.225586 C3.4442139,8.344727 2.9996338,8.361816 2.569458,8.277344 C2.9387207,9.47998 4.0184326,10.309082 5.2530518,10.338379 C4.2384033,11.162109 2.9820557,11.609863 1.685669,11.608887 C1.4602051,11.686523 1.2141113,11.671875 1.0002441,11.567383 C2.309082,12.438965 3.838379,12.90332 5.4001465,12.90332 C7.587036,12.902832 9.682129,12.009277 11.217285,10.422852 C12.753662,8.8359375 13.6015625,6.6879883 13.57373,4.458496 C13.57373,4.3291016 13.57373,4.20166 13.564453,4.0737305 C14.130371,3.6513672 14.616211,3.1298828 15.0008545,2.5332031 Z"/>
</svg>