<svg xmlns="http://www.w3.org/2000/svg"
 xmlns:xlink="http://www.w3.org/1999/xlink"
 width="19px" height="20px"  viewBox="0 0 19 20">
<path fill-rule="evenodd"  fill="#4d4d4d"
 d="M8.999756,11.000244 C6.3304443,11.000244 1.0012207,12.339844 1.0012207,15.0 C1.0012207,15.0 1.0012207,18.000244 1.0012207,18.000244 C1.0012207,18.000244 17.000366,18.000244 17.000366,18.000244 C17.000366,18.000244 17.000366,15.0 17.000366,15.0 C17.000366,12.339844 11.669922,11.000244 8.999756,11.000244 ZM8.999756,2.0 C6.78833,2.0 4.999878,3.790039 4.999878,6.0 C4.999878,8.210205 6.78833,10.000244 8.999756,10.000244 C11.209106,10.000244 12.999634,8.210205 12.999634,6.0 C12.999634,3.790039 11.209106,2.0 8.999756,2.0 ZM8.999756,12.899902 C11.969482,12.899902 15.098633,14.360107 15.098633,15.0 C15.098633,15.0 15.098633,16.100098 15.098633,16.100098 C15.098633,16.100098 2.8985596,16.100098 2.8985596,16.100098 C2.8985596,16.100098 2.8985596,15.0 2.8985596,15.0 C2.8985596,14.360107 6.0300293,12.899902 8.999756,12.899902 ZM8.999756,3.9001465 C10.159424,3.9001465 11.10083,4.8398438 11.10083,6.0 C11.10083,7.1604004 10.159424,8.0998535 8.999756,8.0998535 C7.840088,8.0998535 6.9005127,7.1604004 6.9005127,6.0 C6.9005127,4.8398438 7.840088,3.9001465 8.999756,3.9001465 Z"/>
</svg>