<svg xmlns="http://www.w3.org/2000/svg"
 xmlns:xlink="http://www.w3.org/1999/xlink"
 width="23px" height="21px"  viewBox="0 0 23 21">
<path
 d="M11.101074,16.550049 C11.101074,16.550049 11.000244,16.65039 11.000244,16.65039 C11.000244,16.65039 10.899414,16.550049 10.899414,16.550049 C6.1411133,12.240234 3.0005493,9.390137 3.0005493,6.5 C3.0005493,4.5 4.499817,3.0002441 6.4991455,3.0002441 C8.040894,3.0002441 9.53894,3.9902344 10.06897,5.3603516 C10.06897,5.3603516 11.94165,5.3603516 11.94165,5.3603516 C12.4592285,3.9902344 13.960571,3.0002441 15.500122,3.0002441 C17.500366,3.0002441 18.999634,4.5 18.999634,6.5 C18.999634,9.390137 15.859375,12.240234 11.101074,16.550049 ZM15.500122,1.0002441 C13.76001,1.0002441 12.089966,1.8100586 11.000244,3.090088 C9.911499,1.8100586 8.239258,1.0002441 6.4991455,1.0002441 C3.4205322,1.0002441 1.0012207,3.4199219 1.0012207,6.5 C1.0012207,10.280029 4.401062,13.360352 9.550171,18.04004 C9.550171,18.04004 11.000244,19.349854 11.000244,19.349854 C11.000244,19.349854 12.449951,18.030273 12.449951,18.030273 C17.599121,13.360352 21.001099,10.280029 21.001099,6.5 C21.001099,3.4199219 18.579956,1.0002441 15.500122,1.0002441 Z"/>
</svg>