<svg xmlns="http://www.w3.org/2000/svg"
 xmlns:xlink="http://www.w3.org/1999/xlink"
 width="19px" height="15px"  viewBox="0 0 19 15">
<path
 d="M12.99939,8.0 C12.99939,8.0 6.9990234,4.7299805 6.9990234,4.7299805 C6.9990234,4.7299805 6.9990234,11.260254 6.9990234,11.260254 C6.9990234,11.260254 12.99939,8.0 12.99939,8.0 ZM17.000122,12.0 C17.000122,13.100586 16.100952,14.0 15.0008545,14.0 C15.0008545,14.0 3.0003662,14.0 3.0003662,14.0 C1.9003906,14.0 1.0002441,13.100586 1.0002441,12.0 C1.0002441,12.0 1.0002441,4.0004883 1.0002441,4.0004883 C1.0002441,2.9003906 1.9003906,2.0 3.0003662,2.0 C3.0003662,2.0 15.0008545,2.0 15.0008545,2.0 C16.100952,2.0 17.000122,2.9003906 17.000122,4.0004883 C17.000122,4.0004883 17.000122,12.0 17.000122,12.0 Z"/>
</svg>