<?xml version="1.0" encoding="UTF-8"?>
<svg xmlns="http://www.w3.org/2000/svg" xmlns:xlink="http://www.w3.org/1999/xlink" width="20pt" height="20pt" viewBox="0 0 20 20" version="1.1">
<g id="surface1">
<path style=" stroke:none;fill-rule:nonzero;fill:rgb(0%,0%,0%);fill-opacity:1;" d="M 19.65625 14.464844 L 14.355469 9.164062 L 18.625 4.898438 C 18.894531 4.625 19.046875 4.265625 19.046875 3.878906 C 19.046875 3.496094 18.894531 3.132812 18.625 2.859375 L 17.140625 1.375 C 16.867188 1.105469 16.503906 0.953125 16.121094 0.953125 C 15.734375 0.953125 15.375 1.105469 15.101562 1.375 L 10.835938 5.644531 L 8.03125 2.835938 L 6.507812 1.3125 L 5.535156 0.34375 C 5.078125 -0.113281 4.339844 -0.113281 3.882812 0.34375 L 0.34375 3.882812 C 0.121094 4.101562 0 4.398438 0 4.707031 C 0 5.019531 0.121094 5.3125 0.34375 5.535156 L 5.640625 10.835938 L 3.585938 12.890625 C 3.554688 12.925781 3.527344 12.964844 3.507812 13.003906 L 0.988281 18.492188 C 0.921875 18.640625 0.953125 18.816406 1.070312 18.929688 C 1.144531 19.007812 1.242188 19.046875 1.34375 19.046875 C 1.398438 19.046875 1.457031 19.035156 1.507812 19.011719 L 6.996094 16.492188 C 7.035156 16.472656 7.074219 16.445312 7.109375 16.414062 L 9.164062 14.359375 L 10.84375 16.035156 C 10.921875 16.113281 11.019531 16.152344 11.121094 16.152344 C 11.21875 16.152344 11.320312 16.113281 11.398438 16.035156 C 11.550781 15.882812 11.550781 15.636719 11.398438 15.484375 L 9.71875 13.804688 L 13.804688 9.71875 L 14.8125 10.722656 L 14.4375 11.097656 C 14.285156 11.25 14.285156 11.496094 14.4375 11.648438 C 14.515625 11.726562 14.613281 11.761719 14.714844 11.761719 C 14.8125 11.761719 14.914062 11.726562 14.988281 11.648438 L 15.363281 11.277344 L 16.332031 12.246094 L 15.21875 13.359375 C 15.0625 13.515625 15.0625 13.761719 15.21875 13.914062 C 15.292969 13.988281 15.394531 14.027344 15.492188 14.027344 C 15.59375 14.027344 15.691406 13.988281 15.769531 13.914062 L 16.886719 12.796875 L 17.855469 13.765625 L 17.480469 14.140625 C 17.328125 14.292969 17.328125 14.539062 17.480469 14.691406 C 17.558594 14.769531 17.65625 14.808594 17.757812 14.808594 C 17.859375 14.808594 17.957031 14.769531 18.035156 14.691406 L 18.40625 14.320312 L 19.105469 15.019531 C 19.179688 15.089844 19.21875 15.1875 19.21875 15.292969 C 19.21875 15.394531 19.179688 15.492188 19.105469 15.566406 L 15.566406 19.105469 C 15.414062 19.257812 15.167969 19.257812 15.019531 19.105469 L 13.609375 17.699219 C 13.457031 17.542969 13.210938 17.542969 13.058594 17.699219 C 12.90625 17.851562 12.90625 18.097656 13.058594 18.25 L 14.464844 19.65625 C 14.691406 19.886719 14.992188 20 15.292969 20 C 15.589844 20 15.890625 19.886719 16.117188 19.65625 L 19.65625 16.117188 C 19.878906 15.898438 20 15.601562 20 15.292969 C 20 14.980469 19.878906 14.6875 19.65625 14.464844 Z M 15.652344 1.929688 C 15.777344 1.804688 15.945312 1.734375 16.121094 1.734375 C 16.296875 1.734375 16.460938 1.804688 16.585938 1.929688 L 18.070312 3.414062 C 18.328125 3.671875 18.328125 4.089844 18.070312 4.347656 L 16.929688 5.488281 L 14.511719 3.070312 Z M 0.894531 4.980469 C 0.820312 4.910156 0.78125 4.8125 0.78125 4.707031 C 0.78125 4.605469 0.820312 4.507812 0.894531 4.433594 L 4.433594 0.894531 C 4.585938 0.742188 4.832031 0.742188 4.980469 0.894531 L 5.679688 1.589844 L 5.304688 1.964844 C 5.152344 2.117188 5.152344 2.363281 5.304688 2.515625 C 5.382812 2.59375 5.480469 2.628906 5.582031 2.628906 C 5.679688 2.628906 5.78125 2.59375 5.855469 2.515625 L 6.230469 2.144531 L 7.199219 3.113281 L 6.085938 4.230469 C 5.933594 4.382812 5.933594 4.628906 6.085938 4.78125 C 6.160156 4.859375 6.261719 4.894531 6.359375 4.894531 C 6.460938 4.894531 6.5625 4.859375 6.636719 4.78125 L 7.753906 3.664062 L 8.722656 4.636719 L 8.347656 5.007812 C 8.195312 5.160156 8.195312 5.410156 8.347656 5.5625 C 8.425781 5.636719 8.527344 5.675781 8.625 5.675781 C 8.726562 5.675781 8.824219 5.636719 8.902344 5.5625 L 9.273438 5.1875 L 10.28125 6.195312 L 6.195312 10.28125 Z M 2.140625 17.859375 L 2.671875 16.695312 L 3.304688 17.328125 Z M 4.0625 16.980469 L 3.019531 15.9375 L 3.984375 13.839844 L 6.160156 16.015625 Z M 6.832031 15.585938 L 4.414062 13.167969 L 13.960938 3.621094 L 15.257812 4.921875 L 12.039062 8.140625 C 11.886719 8.292969 11.886719 8.539062 12.039062 8.691406 C 12.117188 8.769531 12.214844 8.804688 12.316406 8.804688 C 12.417969 8.804688 12.515625 8.769531 12.59375 8.691406 L 15.8125 5.472656 L 16.378906 6.039062 Z M 6.832031 15.585938 "/>
<path style=" stroke:none;fill-rule:nonzero;fill:rgb(0%,0%,0%);fill-opacity:1;" d="M 12.59375 16.679688 C 12.519531 16.609375 12.417969 16.566406 12.316406 16.566406 C 12.214844 16.566406 12.113281 16.609375 12.039062 16.679688 C 11.96875 16.753906 11.925781 16.855469 11.925781 16.957031 C 11.925781 17.058594 11.96875 17.160156 12.039062 17.234375 C 12.113281 17.304688 12.214844 17.347656 12.316406 17.347656 C 12.417969 17.347656 12.519531 17.304688 12.59375 17.234375 C 12.664062 17.160156 12.707031 17.058594 12.707031 16.957031 C 12.707031 16.855469 12.664062 16.753906 12.59375 16.679688 Z M 12.59375 16.679688 "/>
<path style=" stroke:none;fill-rule:nonzero;fill:rgb(0%,0%,0%);fill-opacity:1;" d="M 11.546875 9.183594 C 11.476562 9.113281 11.375 9.070312 11.273438 9.070312 C 11.167969 9.070312 11.066406 9.113281 10.996094 9.183594 C 10.921875 9.257812 10.882812 9.359375 10.882812 9.460938 C 10.882812 9.5625 10.921875 9.664062 10.996094 9.738281 C 11.066406 9.808594 11.167969 9.851562 11.273438 9.851562 C 11.375 9.851562 11.476562 9.808594 11.546875 9.738281 C 11.621094 9.664062 11.664062 9.5625 11.664062 9.460938 C 11.664062 9.359375 11.621094 9.257812 11.546875 9.183594 Z M 11.546875 9.183594 "/>
</g>
</svg>
