<?xml version="1.0" encoding="UTF-8"?>
<svg xmlns="http://www.w3.org/2000/svg" xmlns:xlink="http://www.w3.org/1999/xlink" width="20pt" height="20pt" viewBox="0 0 20 20" version="1.1">
<g id="surface1">
<path style=" stroke:none;fill-rule:nonzero;fill-opacity:1;" d="M 17.21875 17.039062 C 17.382812 17.039062 17.511719 16.910156 17.511719 16.746094 L 17.511719 6.511719 C 17.511719 6.289062 17.472656 6.074219 17.394531 5.867188 L 15.964844 2.054688 L 15.964844 0.699219 C 15.964844 0.316406 15.652344 0 15.265625 0 L 4.734375 0 C 4.347656 0 4.035156 0.316406 4.035156 0.699219 L 4.035156 2.054688 L 2.605469 5.867188 C 2.527344 6.074219 2.488281 6.289062 2.488281 6.511719 L 2.488281 18.800781 C 2.488281 19.460938 3.023438 20 3.6875 20 L 16.3125 20 C 16.976562 20 17.511719 19.460938 17.511719 18.800781 L 17.511719 18.117188 C 17.511719 17.953125 17.382812 17.824219 17.21875 17.824219 C 17.058594 17.824219 16.925781 17.953125 16.925781 18.117188 L 16.925781 18.800781 C 16.925781 19.140625 16.652344 19.414062 16.3125 19.414062 L 3.6875 19.414062 C 3.347656 19.414062 3.074219 19.140625 3.074219 18.800781 L 3.074219 6.804688 L 16.925781 6.804688 L 16.925781 16.746094 C 16.925781 16.910156 17.058594 17.039062 17.21875 17.039062 Z M 4.53125 2.398438 L 5.554688 2.398438 C 5.71875 2.398438 5.847656 2.269531 5.847656 2.105469 C 5.847656 1.945312 5.71875 1.8125 5.554688 1.8125 L 4.621094 1.8125 L 4.621094 0.699219 C 4.621094 0.636719 4.671875 0.585938 4.734375 0.585938 L 15.265625 0.585938 C 15.328125 0.585938 15.378906 0.636719 15.378906 0.699219 L 15.378906 1.8125 L 6.925781 1.8125 C 6.765625 1.8125 6.632812 1.945312 6.632812 2.105469 C 6.632812 2.269531 6.765625 2.398438 6.925781 2.398438 L 15.46875 2.398438 L 16.847656 6.074219 C 16.863281 6.121094 16.878906 6.167969 16.890625 6.21875 L 3.109375 6.21875 C 3.121094 6.167969 3.136719 6.121094 3.152344 6.074219 Z M 4.53125 2.398438 "/>
<path style=" stroke:none;fill-rule:nonzero;fill-opacity:1;" d="M 5.457031 13.183594 C 5.457031 15.691406 7.5 17.726562 10 17.726562 C 12.503906 17.726562 14.542969 15.6875 14.542969 13.183594 C 14.542969 10.675781 12.503906 8.640625 10 8.640625 C 7.496094 8.640625 5.457031 10.675781 5.457031 13.183594 Z M 7.777344 16.453125 C 9.195312 15.898438 10.800781 15.898438 12.222656 16.453125 C 10.886719 17.363281 9.121094 17.371094 7.777344 16.453125 Z M 8.78125 12.761719 C 8.5 12.660156 8.265625 12.402344 8.082031 11.996094 C 8.285156 11.996094 8.535156 11.980469 8.828125 11.945312 C 9.347656 11.878906 9.625 12.089844 9.625 12.679688 C 9.449219 12.761719 9.109375 12.882812 8.78125 12.761719 Z M 13.957031 13.183594 C 13.957031 14.300781 13.488281 15.3125 12.738281 16.035156 C 11.9375 15.675781 11.082031 15.480469 10.199219 15.453125 L 10.199219 14.988281 C 10.613281 15.078125 11.035156 15.054688 11.40625 14.867188 C 11.953125 14.589844 12.316406 14.003906 12.476562 13.125 C 12.523438 12.863281 12.261719 12.652344 12.019531 12.753906 C 11.933594 12.789062 11.675781 12.898438 11 12.859375 C 10.691406 12.839844 10.417969 12.914062 10.199219 13.070312 L 10.199219 12.878906 C 10.308594 11.949219 9.789062 11.238281 8.757812 11.363281 C 8.082031 11.445312 7.847656 11.398438 7.792969 11.382812 C 7.539062 11.3125 7.304688 11.550781 7.386719 11.800781 C 7.640625 12.613281 8.042969 13.125 8.589844 13.316406 C 8.925781 13.4375 9.277344 13.417969 9.613281 13.3125 L 9.613281 15.460938 C 8.796875 15.507812 8.007812 15.699219 7.261719 16.035156 C 6.511719 15.316406 6.042969 14.300781 6.042969 13.183594 C 6.042969 11 7.816406 9.226562 10 9.226562 C 12.183594 9.226562 13.957031 11 13.957031 13.183594 Z M 10.199219 14.382812 C 10.21875 14.144531 10.28125 13.796875 10.476562 13.601562 C 10.597656 13.484375 10.753906 13.433594 10.964844 13.445312 C 11.332031 13.464844 11.601562 13.449219 11.804688 13.417969 C 11.664062 13.878906 11.441406 14.191406 11.144531 14.34375 C 10.800781 14.519531 10.414062 14.449219 10.199219 14.382812 Z M 10.199219 14.382812 "/>
</g>
</svg>
