<?xml version="1.0" encoding="UTF-8"?>
<svg xmlns="http://www.w3.org/2000/svg" xmlns:xlink="http://www.w3.org/1999/xlink" width="20pt" height="20pt" viewBox="0 0 20 20" version="1.1">
<g id="surface1">
<path style=" stroke:none;fill-rule:nonzero;fill-opacity:1;" d="M 13.480469 9.375 C 13.457031 9.304688 13.402344 9.253906 13.335938 9.230469 C 12.65625 8.988281 11.734375 9.496094 11.296875 9.933594 C 10.902344 10.328125 10.816406 10.902344 11.058594 11.316406 L 10.238281 12.136719 L 10.238281 10.554688 C 10.796875 10.425781 11.21875 9.871094 11.21875 9.203125 C 11.21875 8.347656 10.792969 7.21875 10.101562 6.890625 C 10.035156 6.859375 9.960938 6.863281 9.894531 6.890625 C 9.207031 7.21875 8.777344 8.347656 8.777344 9.203125 C 8.777344 9.871094 9.199219 10.425781 9.757812 10.554688 L 9.757812 12.121094 L 8.945312 11.308594 C 9.1875 10.894531 9.101562 10.324219 8.707031 9.929688 C 8.269531 9.492188 7.347656 8.984375 6.667969 9.222656 L 6.667969 9.226562 C 6.605469 9.25 6.546875 9.300781 6.523438 9.371094 C 6.28125 10.050781 6.789062 10.972656 7.226562 11.410156 C 7.476562 11.65625 7.792969 11.78125 8.097656 11.78125 C 8.277344 11.78125 8.453125 11.738281 8.605469 11.648438 L 9.757812 12.804688 L 9.757812 13.40625 C 9.757812 13.539062 9.867188 13.648438 10 13.648438 C 10.132812 13.648438 10.238281 13.539062 10.238281 13.40625 L 10.238281 12.816406 L 11.398438 11.65625 C 11.550781 11.746094 11.726562 11.789062 11.90625 11.789062 C 12.210938 11.789062 12.53125 11.664062 12.777344 11.417969 C 13.214844 10.980469 13.722656 10.054688 13.480469 9.375 Z M 7.570312 11.070312 C 7.207031 10.710938 6.898438 10.066406 6.949219 9.652344 C 7.363281 9.597656 8.007812 9.910156 8.367188 10.269531 C 8.566406 10.464844 8.640625 10.730469 8.582031 10.945312 L 7.992188 10.355469 C 7.898438 10.261719 7.746094 10.261719 7.652344 10.355469 C 7.558594 10.449219 7.558594 10.601562 7.652344 10.695312 L 8.242188 11.285156 C 8.027344 11.339844 7.765625 11.265625 7.570312 11.070312 Z M 9.261719 9.203125 C 9.261719 8.554688 9.558594 7.695312 10 7.386719 C 10.441406 7.695312 10.738281 8.554688 10.738281 9.203125 C 10.738281 9.59375 10.53125 9.925781 10.238281 10.050781 L 10.238281 8.941406 C 10.238281 8.808594 10.132812 8.703125 10 8.703125 C 9.867188 8.703125 9.757812 8.808594 9.757812 8.941406 L 9.757812 10.050781 C 9.46875 9.925781 9.261719 9.59375 9.261719 9.203125 Z M 12.4375 11.074219 C 12.242188 11.273438 11.976562 11.347656 11.761719 11.289062 L 12.359375 10.695312 C 12.453125 10.601562 12.453125 10.449219 12.359375 10.355469 C 12.261719 10.261719 12.109375 10.261719 12.015625 10.355469 L 11.421875 10.949219 C 11.363281 10.734375 11.441406 10.472656 11.636719 10.277344 C 11.996094 9.917969 12.640625 9.605469 13.054688 9.65625 C 13.105469 10.070312 12.796875 10.714844 12.4375 11.074219 Z M 12.4375 11.074219 "/>
<path style=" stroke:none;fill-rule:nonzero;fill-opacity:1;" d="M 10 14.597656 C 7.464844 14.597656 5.398438 12.535156 5.398438 9.996094 C 5.398438 7.460938 7.464844 5.398438 10 5.398438 C 12.535156 5.398438 14.597656 7.460938 14.597656 9.996094 C 14.597656 12.535156 12.535156 14.597656 10 14.597656 Z M 10 5.878906 C 7.730469 5.878906 5.882812 7.726562 5.882812 9.996094 C 5.882812 12.269531 7.730469 14.113281 10 14.113281 C 12.269531 14.113281 14.117188 12.269531 14.117188 9.996094 C 14.117188 7.726562 12.269531 5.878906 10 5.878906 Z M 10 5.878906 "/>
<path style=" stroke:none;fill-rule:nonzero;fill-opacity:1;" d="M 16.484375 17.351562 C 16.195312 17.214844 15.917969 17.207031 15.695312 17.242188 C 16.863281 12.496094 16.863281 7.5 15.695312 2.753906 C 15.765625 2.765625 15.835938 2.773438 15.914062 2.773438 C 16.089844 2.773438 16.285156 2.738281 16.484375 2.644531 C 17.117188 2.34375 17.542969 1.546875 17.738281 0.277344 C 17.773438 0.0429688 17.542969 -0.0078125 17.464844 0 C 16.191406 0.199219 15.394531 0.621094 15.09375 1.253906 C 14.992188 1.472656 14.960938 1.683594 14.96875 1.871094 C 14.707031 1.765625 14.347656 1.664062 13.855469 1.574219 C 12.820312 1.382812 11.453125 1.277344 10 1.277344 C 8.546875 1.277344 7.175781 1.382812 6.144531 1.574219 C 5.648438 1.664062 5.289062 1.765625 5.03125 1.871094 C 5.039062 1.683594 5.007812 1.472656 4.902344 1.253906 C 4.601562 0.621094 3.804688 0.199219 2.535156 0 C 2.363281 -0.00390625 2.238281 0.144531 2.261719 0.277344 C 2.460938 1.546875 2.882812 2.34375 3.515625 2.644531 C 3.714844 2.738281 3.910156 2.773438 4.082031 2.773438 C 4.160156 2.773438 4.234375 2.765625 4.304688 2.753906 C 3.136719 7.5 3.136719 12.496094 4.304688 17.242188 C 4.082031 17.207031 3.800781 17.210938 3.515625 17.351562 C 2.753906 17.71875 2.257812 19.449219 2.261719 19.796875 C 2.261719 19.914062 2.382812 20 2.496094 20 C 2.742188 20 4.59375 19.511719 4.902344 18.742188 C 4.996094 18.519531 5.039062 18.3125 5.03125 18.125 C 5.289062 18.230469 5.648438 18.328125 6.144531 18.421875 C 7.175781 18.613281 8.546875 18.71875 10 18.71875 C 11.453125 18.71875 12.820312 18.613281 13.855469 18.421875 C 14.347656 18.328125 14.707031 18.230469 14.96875 18.125 C 14.960938 18.3125 14.992188 18.523438 15.09375 18.742188 C 15.394531 19.375 16.195312 19.78125 17.464844 19.996094 C 17.515625 20.003906 17.539062 19.996094 17.539062 19.996094 C 17.667969 19.976562 17.757812 19.851562 17.738281 19.71875 C 17.539062 18.449219 17.117188 17.652344 16.484375 17.351562 Z M 15.527344 1.460938 C 15.730469 1.039062 16.304688 0.722656 17.203125 0.539062 C 17.015625 1.429688 16.703125 2.003906 16.28125 2.207031 C 15.960938 2.363281 15.65625 2.265625 15.527344 2.210938 C 15.476562 2.085938 15.378906 1.777344 15.527344 1.460938 Z M 6.378906 2.019531 C 7.363281 1.851562 8.648438 1.757812 10 1.757812 C 11.347656 1.757812 12.636719 1.851562 13.621094 2.019531 C 14.757812 2.21875 15.105469 2.449219 15.148438 2.527344 C 15.148438 2.53125 15.148438 2.53125 15.148438 2.53125 C 15.148438 2.535156 15.210938 2.796875 15.238281 2.90625 C 14.953125 2.792969 14.539062 2.675781 13.933594 2.574219 C 12.867188 2.390625 11.46875 2.292969 10 2.292969 C 8.527344 2.292969 7.132812 2.390625 6.066406 2.574219 C 5.460938 2.675781 5.046875 2.792969 4.761719 2.90625 C 4.789062 2.796875 4.851562 2.53125 4.851562 2.527344 C 4.894531 2.449219 5.238281 2.21875 6.378906 2.019531 Z M 3.722656 2.210938 C 3.300781 2.007812 2.984375 1.433594 2.796875 0.539062 C 3.6875 0.722656 4.261719 1.035156 4.46875 1.457031 C 4.621094 1.777344 4.527344 2.085938 4.472656 2.210938 C 4.347656 2.265625 4.035156 2.359375 3.722656 2.210938 Z M 4.46875 18.535156 C 4.269531 18.957031 3.691406 19.273438 2.796875 19.457031 C 2.980469 18.566406 3.296875 17.992188 3.714844 17.789062 C 4.035156 17.632812 4.34375 17.730469 4.472656 17.785156 C 4.523438 17.910156 4.621094 18.21875 4.46875 18.535156 Z M 15.148438 17.464844 C 15.105469 17.546875 14.757812 17.777344 13.621094 17.972656 C 12.636719 18.144531 11.347656 18.238281 10 18.238281 C 8.648438 18.238281 7.363281 18.144531 6.378906 17.972656 C 5.238281 17.777344 4.894531 17.546875 4.851562 17.464844 C 4.851562 17.464844 4.789062 17.199219 4.761719 17.089844 C 5.046875 17.203125 5.460938 17.320312 6.066406 17.421875 C 7.132812 17.605469 8.527344 17.703125 10 17.703125 C 11.46875 17.703125 12.867188 17.605469 13.929688 17.421875 C 14.539062 17.320312 14.953125 17.203125 15.238281 17.089844 C 15.210938 17.199219 15.148438 17.464844 15.148438 17.464844 Z M 13.777344 16.960938 C 12.746094 17.128906 11.40625 17.222656 10 17.222656 C 8.59375 17.222656 7.25 17.128906 6.222656 16.960938 C 5.003906 16.757812 4.648438 16.519531 4.613281 16.449219 C 4.613281 16.445312 4.613281 16.445312 4.613281 16.445312 C 3.675781 12.207031 3.675781 7.789062 4.613281 3.550781 C 4.652344 3.472656 5.019531 3.234375 6.222656 3.035156 C 7.25 2.867188 8.59375 2.773438 10 2.773438 C 11.40625 2.773438 12.746094 2.867188 13.777344 3.035156 C 14.992188 3.234375 15.351562 3.476562 15.386719 3.546875 C 16.324219 7.785156 16.324219 12.207031 15.386719 16.445312 C 15.347656 16.523438 14.984375 16.761719 13.777344 16.960938 Z M 15.53125 18.539062 C 15.375 18.21875 15.472656 17.910156 15.527344 17.785156 C 15.652344 17.730469 15.960938 17.636719 16.277344 17.785156 C 16.699219 17.988281 17.015625 18.5625 17.203125 19.457031 C 16.308594 19.273438 15.734375 18.960938 15.53125 18.539062 Z M 15.53125 18.539062 "/>
</g>
</svg>
