<?xml version="1.0" encoding="UTF-8"?>
<svg xmlns="http://www.w3.org/2000/svg" xmlns:xlink="http://www.w3.org/1999/xlink" width="20pt" height="20pt" viewBox="0 0 20 20" version="1.1">
<g id="surface1">
<path style=" stroke:none;fill-rule:nonzero;fill:rgb(0%,0%,0%);fill-opacity:1;" d="M 8.125 11.25 L 6.5625 11.25 L 6.5625 10.3125 C 6.5625 10.140625 6.421875 10 6.25 10 L 5.9375 10 L 5.9375 7.1875 L 6.25 7.1875 C 6.421875 7.1875 6.5625 7.046875 6.5625 6.875 L 6.5625 5.804688 C 6.570312 5.679688 6.65625 5.570312 6.773438 5.535156 C 7.398438 5.3125 7.8125 4.722656 7.8125 4.0625 L 7.8125 0.9375 C 7.8125 0.765625 7.671875 0.625 7.5 0.625 L 2.5 0.625 C 2.328125 0.625 2.1875 0.765625 2.1875 0.9375 L 2.1875 4.0625 C 2.1875 4.722656 2.601562 5.3125 3.226562 5.535156 C 3.34375 5.570312 3.429688 5.679688 3.4375 5.804688 L 3.4375 6.875 C 3.4375 7.046875 3.578125 7.1875 3.75 7.1875 L 4.0625 7.1875 L 4.0625 10 L 3.75 10 C 3.578125 10 3.4375 10.140625 3.4375 10.3125 L 3.4375 11.25 L 1.875 11.25 C 1.703125 11.25 1.5625 11.390625 1.5625 11.5625 L 1.5625 14.710938 C 1.566406 16.355469 2.429688 17.878906 3.835938 18.730469 L 4.839844 19.332031 C 4.9375 19.390625 5.0625 19.390625 5.160156 19.332031 L 6.164062 18.730469 C 7.570312 17.878906 8.433594 16.355469 8.4375 14.710938 L 8.4375 11.5625 C 8.4375 11.390625 8.296875 11.25 8.125 11.25 Z M 3.433594 4.945312 C 3.0625 4.8125 2.8125 4.457031 2.8125 4.0625 L 2.8125 1.25 L 7.1875 1.25 L 7.1875 4.0625 C 7.1875 4.457031 6.9375 4.8125 6.566406 4.945312 C 6.195312 5.066406 5.941406 5.414062 5.9375 5.804688 L 5.9375 6.5625 L 4.0625 6.5625 L 4.0625 5.804688 C 4.058594 5.414062 3.804688 5.066406 3.433594 4.945312 Z M 5.3125 7.1875 L 5.3125 10 L 4.6875 10 L 4.6875 7.1875 Z M 4.0625 10.625 L 5.9375 10.625 L 5.9375 13.433594 C 5.9375 14 5.632812 14.519531 5.140625 14.796875 L 5 14.875 L 4.859375 14.796875 C 4.367188 14.519531 4.0625 14 4.0625 13.433594 Z M 7.8125 14.710938 C 7.808594 16.136719 7.0625 17.457031 5.839844 18.195312 L 5 18.695312 L 4.160156 18.195312 C 2.9375 17.457031 2.191406 16.136719 2.1875 14.710938 L 2.1875 11.875 L 3.4375 11.875 L 3.4375 13.433594 C 3.4375 14.222656 3.863281 14.953125 4.554688 15.339844 L 4.847656 15.507812 C 4.941406 15.558594 5.058594 15.558594 5.152344 15.507812 L 5.445312 15.339844 C 6.136719 14.953125 6.5625 14.222656 6.5625 13.433594 L 6.5625 11.875 L 7.8125 11.875 Z M 7.8125 14.710938 "/>
<path style=" stroke:none;fill-rule:nonzero;fill:rgb(0%,0%,0%);fill-opacity:1;" d="M 5.625 4.6875 C 6.144531 4.6875 6.5625 4.269531 6.5625 3.75 L 6.5625 2.1875 C 6.5625 2.015625 6.421875 1.875 6.25 1.875 L 3.75 1.875 C 3.578125 1.875 3.4375 2.015625 3.4375 2.1875 L 3.4375 3.75 C 3.4375 4.269531 3.855469 4.6875 4.375 4.6875 Z M 4.0625 3.75 L 4.0625 2.5 L 5.9375 2.5 L 5.9375 3.75 C 5.9375 3.921875 5.796875 4.0625 5.625 4.0625 L 4.375 4.0625 C 4.203125 4.0625 4.0625 3.921875 4.0625 3.75 Z M 4.0625 3.75 "/>
<path style=" stroke:none;fill-rule:nonzero;fill:rgb(0%,0%,0%);fill-opacity:1;" d="M 18.75 11.25 L 18.023438 11.25 L 18.121094 10.347656 C 18.132812 10.257812 18.101562 10.171875 18.042969 10.105469 C 17.984375 10.039062 17.902344 10 17.8125 10 L 17.785156 10 C 17.632812 9.097656 16.851562 8.4375 15.9375 8.4375 C 15.898438 8.4375 15.867188 8.441406 15.832031 8.445312 C 15.570312 7.691406 14.859375 7.1875 14.0625 7.1875 C 13.265625 7.1875 12.554688 7.695312 12.292969 8.445312 C 12.257812 8.445312 12.226562 8.4375 12.1875 8.4375 C 11.273438 8.4375 10.492188 9.097656 10.339844 10 L 10.3125 10 C 10.222656 10 10.140625 10.039062 10.082031 10.105469 C 10.023438 10.171875 9.992188 10.257812 10.003906 10.347656 L 10.101562 11.25 L 9.375 11.25 C 9.203125 11.25 9.0625 11.390625 9.0625 11.5625 L 9.0625 11.875 C 9.0625 13.210938 9.597656 14.488281 10.546875 15.425781 L 10.941406 19.097656 C 10.957031 19.253906 11.089844 19.375 11.25 19.375 L 16.875 19.375 C 17.035156 19.375 17.167969 19.253906 17.183594 19.097656 L 17.578125 15.425781 C 18.527344 14.488281 19.0625 13.210938 19.0625 11.875 L 19.0625 11.5625 C 19.0625 11.390625 18.921875 11.25 18.75 11.25 Z M 9.6875 11.875 L 10.164062 11.875 L 10.425781 14.304688 C 9.941406 13.585938 9.6875 12.738281 9.6875 11.875 Z M 15.78125 9.8125 C 15.882812 9.574219 15.9375 9.320312 15.9375 9.0625 C 16.507812 9.0625 17 9.449219 17.144531 10 L 15.496094 10 C 15.621094 10 15.734375 9.925781 15.78125 9.8125 Z M 12.1875 9.0625 C 12.457031 9.0625 12.722656 9.148438 12.9375 9.3125 C 13.074219 9.417969 13.269531 9.386719 13.375 9.25 C 13.480469 9.113281 13.449219 8.917969 13.3125 8.8125 C 13.1875 8.722656 13.050781 8.644531 12.910156 8.585938 C 13.121094 8.074219 13.644531 7.761719 14.195312 7.820312 C 14.746094 7.878906 15.195312 8.292969 15.289062 8.839844 C 15.304688 8.914062 15.3125 8.988281 15.3125 9.0625 C 15.3125 9.234375 15.277344 9.40625 15.210938 9.5625 C 15.140625 9.71875 15.210938 9.90625 15.367188 9.976562 C 15.410156 9.992188 15.449219 10 15.492188 10 L 12.1875 10 C 12.359375 10 12.5 9.859375 12.5 9.6875 C 12.5 9.515625 12.359375 9.375 12.1875 9.375 L 11.875 9.375 C 11.703125 9.375 11.5625 9.515625 11.5625 9.6875 C 11.5625 9.859375 11.703125 10 11.875 10 L 10.980469 10 C 11.125 9.449219 11.617188 9.0625 12.1875 9.0625 Z M 16.59375 18.75 L 11.53125 18.75 L 11.234375 15.992188 C 12.9375 17.167969 15.1875 17.167969 16.890625 15.992188 Z M 16.980469 15.121094 C 15.324219 16.625 12.800781 16.625 11.144531 15.121094 L 10.792969 11.875 L 17.332031 11.875 Z M 17.398438 11.25 L 10.726562 11.25 L 10.660156 10.625 L 17.464844 10.625 Z M 17.699219 14.304688 L 17.960938 11.875 L 18.4375 11.875 C 18.4375 12.738281 18.183594 13.585938 17.699219 14.304688 Z M 17.699219 14.304688 "/>
<path style=" stroke:none;fill-rule:nonzero;fill:rgb(0%,0%,0%);fill-opacity:1;" d="M 14.0625 9.375 L 14.375 9.375 C 14.546875 9.375 14.6875 9.234375 14.6875 9.0625 C 14.6875 8.890625 14.546875 8.75 14.375 8.75 L 14.0625 8.75 C 13.890625 8.75 13.75 8.890625 13.75 9.0625 C 13.75 9.234375 13.890625 9.375 14.0625 9.375 Z M 14.0625 9.375 "/>
<path style=" stroke:none;fill-rule:nonzero;fill:rgb(0%,0%,0%);fill-opacity:1;" d="M 16.5625 8.125 L 16.875 8.125 C 17.046875 8.125 17.1875 7.984375 17.1875 7.8125 C 17.1875 7.640625 17.046875 7.5 16.875 7.5 L 16.5625 7.5 C 16.390625 7.5 16.25 7.640625 16.25 7.8125 C 16.25 7.984375 16.390625 8.125 16.5625 8.125 Z M 16.5625 8.125 "/>
<path style=" stroke:none;fill-rule:nonzero;fill:rgb(0%,0%,0%);fill-opacity:1;" d="M 11.5625 8.125 L 11.875 8.125 C 12.046875 8.125 12.1875 7.984375 12.1875 7.8125 C 12.1875 7.640625 12.046875 7.5 11.875 7.5 L 11.5625 7.5 C 11.390625 7.5 11.25 7.640625 11.25 7.8125 C 11.25 7.984375 11.390625 8.125 11.5625 8.125 Z M 11.5625 8.125 "/>
<path style=" stroke:none;fill-rule:nonzero;fill:rgb(0%,0%,0%);fill-opacity:1;" d="M 18.125 9.375 L 18.4375 9.375 C 18.609375 9.375 18.75 9.234375 18.75 9.0625 C 18.75 8.890625 18.609375 8.75 18.4375 8.75 L 18.125 8.75 C 17.953125 8.75 17.8125 8.890625 17.8125 9.0625 C 17.8125 9.234375 17.953125 9.375 18.125 9.375 Z M 18.125 9.375 "/>
<path style=" stroke:none;fill-rule:nonzero;fill:rgb(0%,0%,0%);fill-opacity:1;" d="M 13.75 6.875 L 14.0625 6.875 C 14.234375 6.875 14.375 6.734375 14.375 6.5625 C 14.375 6.390625 14.234375 6.25 14.0625 6.25 L 13.75 6.25 C 13.578125 6.25 13.4375 6.390625 13.4375 6.5625 C 13.4375 6.734375 13.578125 6.875 13.75 6.875 Z M 13.75 6.875 "/>
</g>
</svg>
