<?xml version="1.0" encoding="UTF-8"?>
<svg xmlns="http://www.w3.org/2000/svg" xmlns:xlink="http://www.w3.org/1999/xlink" width="20pt" height="20pt" viewBox="0 0 20 20" version="1.1">
<g id="surface1">
<path style=" stroke:none;fill-rule:nonzero;fill-opacity:1;" d="M 16.214844 6.269531 L 15.824219 6.269531 L 15.824219 4.394531 C 15.824219 4.027344 15.527344 3.726562 15.160156 3.726562 C 14.792969 3.726562 14.492188 4.027344 14.492188 4.394531 L 14.492188 6.269531 L 13.339844 6.269531 L 13.339844 3.152344 C 13.339844 2.785156 13.042969 2.484375 12.675781 2.484375 C 12.304688 2.484375 12.007812 2.785156 12.007812 3.152344 L 12.007812 6.269531 L 11.476562 6.269531 L 11.476562 4.394531 C 11.476562 4.027344 11.179688 3.726562 10.808594 3.726562 C 10.441406 3.726562 10.144531 4.027344 10.144531 4.394531 L 10.144531 6.269531 L 9.613281 6.269531 L 9.613281 0.667969 C 9.613281 0.296875 9.3125 0 8.945312 0 C 8.578125 0 8.277344 0.296875 8.277344 0.667969 L 8.277344 6.269531 L 7.128906 6.269531 L 7.128906 3.152344 C 7.128906 2.785156 6.828125 2.484375 6.460938 2.484375 C 6.09375 2.484375 5.792969 2.785156 5.792969 3.152344 L 5.792969 6.269531 L 5.207031 6.269531 L 5.207031 4.394531 C 5.207031 4.027344 4.90625 3.726562 4.539062 3.726562 C 4.171875 3.726562 3.871094 4.027344 3.871094 4.394531 L 3.871094 6.269531 L 3.785156 6.269531 C 3.417969 6.269531 3.121094 6.570312 3.121094 6.9375 L 3.121094 11.097656 C 3.121094 11.464844 3.417969 11.765625 3.785156 11.765625 L 4.074219 11.765625 L 4.898438 19.40625 C 4.933594 19.742188 5.222656 20 5.5625 20 L 14.4375 20 C 14.78125 20 15.066406 19.742188 15.101562 19.40625 L 15.925781 11.765625 L 16.214844 11.765625 C 16.582031 11.765625 16.878906 11.464844 16.878906 11.097656 L 16.878906 6.9375 C 16.878906 6.570312 16.582031 6.269531 16.214844 6.269531 Z M 4.453125 10.429688 L 4.453125 7.605469 L 15.546875 7.605469 L 15.546875 10.429688 Z M 13.839844 18.667969 L 6.160156 18.667969 L 5.417969 11.765625 L 14.582031 11.765625 Z M 13.839844 18.667969 "/>
<path style=" stroke:none;fill-rule:nonzero;fill-opacity:1;" d="M 4.539062 2.632812 C 4.90625 2.632812 5.207031 2.335938 5.207031 1.964844 L 5.207031 0.78125 C 5.207031 0.410156 4.90625 0.113281 4.539062 0.113281 C 4.171875 0.113281 3.871094 0.410156 3.871094 0.78125 L 3.871094 1.964844 C 3.871094 2.335938 4.171875 2.632812 4.539062 2.632812 Z M 4.539062 2.632812 "/>
<path style=" stroke:none;fill-rule:nonzero;fill-opacity:1;" d="M 15.160156 2.632812 C 15.335938 2.632812 15.507812 2.5625 15.628906 2.4375 C 15.753906 2.3125 15.824219 2.140625 15.824219 1.964844 C 15.824219 1.789062 15.753906 1.617188 15.628906 1.496094 C 15.507812 1.371094 15.335938 1.300781 15.160156 1.300781 C 14.984375 1.300781 14.8125 1.371094 14.6875 1.496094 C 14.5625 1.617188 14.492188 1.789062 14.492188 1.964844 C 14.492188 2.140625 14.5625 2.3125 14.6875 2.4375 C 14.8125 2.5625 14.984375 2.632812 15.160156 2.632812 Z M 15.160156 2.632812 "/>
<path style=" stroke:none;fill-rule:nonzero;fill-opacity:1;" d="M 10.808594 2.632812 C 11.179688 2.632812 11.476562 2.335938 11.476562 1.964844 L 11.476562 0.722656 C 11.476562 0.355469 11.179688 0.0546875 10.808594 0.0546875 C 10.441406 0.0546875 10.144531 0.355469 10.144531 0.722656 L 10.144531 1.964844 C 10.144531 2.335938 10.441406 2.632812 10.808594 2.632812 Z M 10.808594 2.632812 "/>
</g>
</svg>
