<?xml version="1.0" encoding="UTF-8"?>
<svg xmlns="http://www.w3.org/2000/svg" xmlns:xlink="http://www.w3.org/1999/xlink" width="18pt" height="18pt" viewBox="0 0 18 18" version="1.1">
<g id="surface1">
<path style=" stroke:none;fill-rule:nonzero;fill-opacity:1;" d="M 15.203125 4.152344 C 15 4.121094 14.789062 4.105469 14.582031 4.105469 C 13.507812 4.105469 12.445312 4.511719 11.589844 5.253906 C 10.59375 6.117188 10.011719 7.308594 9.984375 8.539062 L 9.289062 9.144531 L 9.289062 6.882812 C 10.199219 6.054688 10.71875 4.839844 10.71875 3.519531 C 10.71875 2.152344 10.160156 0.894531 9.183594 0.0664062 C 9.078125 -0.0234375 8.921875 -0.0234375 8.8125 0.0664062 C 7.839844 0.894531 7.28125 2.152344 7.28125 3.519531 C 7.28125 4.839844 7.800781 6.054688 8.710938 6.882812 L 8.710938 9.140625 L 8.015625 8.539062 C 7.988281 7.308594 7.40625 6.117188 6.410156 5.253906 C 5.554688 4.511719 4.492188 4.105469 3.417969 4.105469 C 3.210938 4.105469 3 4.121094 2.796875 4.152344 C 2.660156 4.171875 2.558594 4.292969 2.554688 4.433594 C 2.542969 5.707031 3.125 6.953125 4.160156 7.851562 C 5.015625 8.589844 6.078125 9 7.152344 9 C 7.3125 9 7.476562 8.988281 7.636719 8.972656 L 8.710938 9.902344 L 8.710938 10.613281 L 5.394531 10.613281 C 5.238281 10.613281 5.109375 10.742188 5.109375 10.902344 L 5.109375 12.757812 C 5.109375 12.917969 5.238281 13.046875 5.394531 13.046875 L 5.417969 13.046875 L 5.820312 17.738281 C 5.835938 17.886719 5.957031 18 6.109375 18 L 11.527344 18 C 11.675781 18 11.800781 17.886719 11.8125 17.738281 L 12.214844 13.046875 L 12.238281 13.046875 C 12.394531 13.046875 12.523438 12.917969 12.523438 12.757812 L 12.523438 10.902344 C 12.523438 10.742188 12.394531 10.613281 12.238281 10.613281 L 9.289062 10.613281 L 9.289062 9.902344 L 10.363281 8.972656 C 10.523438 8.988281 10.6875 9 10.847656 9 C 11.921875 9 12.984375 8.589844 13.839844 7.851562 C 14.875 6.953125 15.457031 5.707031 15.445312 4.433594 C 15.441406 4.292969 15.339844 4.171875 15.203125 4.152344 Z M 6.035156 5.6875 C 6.742188 6.300781 7.21875 7.128906 7.378906 7.988281 L 6.234375 6.996094 C 6.113281 6.890625 5.929688 6.902344 5.828125 7.023438 C 5.722656 7.144531 5.738281 7.324219 5.855469 7.429688 L 7.003906 8.421875 C 6.117188 8.386719 5.246094 8.03125 4.535156 7.417969 C 3.710938 6.703125 3.199219 5.699219 3.136719 4.691406 C 3.230469 4.683594 3.324219 4.679688 3.417969 4.679688 C 4.355469 4.679688 5.28125 5.035156 6.035156 5.6875 Z M 11.949219 12.472656 L 7.980469 12.472656 C 7.820312 12.472656 7.691406 12.597656 7.691406 12.757812 C 7.691406 12.917969 7.820312 13.046875 7.980469 13.046875 L 11.640625 13.046875 L 11.261719 17.425781 L 6.371094 17.425781 L 5.996094 13.046875 L 6.832031 13.046875 C 6.988281 13.046875 7.117188 12.917969 7.117188 12.757812 C 7.117188 12.597656 6.988281 12.472656 6.832031 12.472656 L 5.6875 12.472656 C 5.6875 12.472656 5.683594 12.472656 5.683594 12.472656 L 5.683594 11.1875 L 11.949219 11.1875 Z M 12.171875 7.023438 C 12.070312 6.902344 11.886719 6.890625 11.765625 6.996094 L 10.621094 7.988281 C 10.78125 7.128906 11.257812 6.300781 11.964844 5.6875 C 12.71875 5.035156 13.644531 4.679688 14.582031 4.679688 C 14.675781 4.679688 14.769531 4.683594 14.863281 4.691406 C 14.800781 5.699219 14.289062 6.703125 13.464844 7.417969 C 12.753906 8.03125 11.882812 8.386719 10.996094 8.421875 L 12.144531 7.429688 C 12.261719 7.324219 12.277344 7.144531 12.171875 7.023438 Z M 9 4.234375 C 8.839844 4.234375 8.710938 4.363281 8.710938 4.523438 L 8.710938 6.042969 C 8.167969 5.355469 7.855469 4.457031 7.855469 3.519531 C 7.855469 2.429688 8.28125 1.382812 9 0.675781 C 9.71875 1.382812 10.144531 2.429688 10.144531 3.519531 C 10.144531 4.457031 9.832031 5.355469 9.289062 6.042969 L 9.289062 4.523438 C 9.289062 4.363281 9.160156 4.234375 9 4.234375 Z M 9 4.234375 "/>
</g>
</svg>
