<svg id="Layer_3" enable-background="new 0 0 64 64" height="512" viewBox="0 0 64 64" width="512" xmlns="http://www.w3.org/2000/svg"><path d="m49 61v-5h-2v5h-10v-50h-2v50h-34v2h62v-2z"/><path d="m38 9h23v-6h-28v6h1z"/><path d="m19.657 36.372-.52 2.079-.69-.345.211-.422c.883-1.765 1.342-3.711 1.342-5.684s-.459-3.919-1.342-5.683l-.658-1.317-.658 1.317c-.883 1.764-1.342 3.71-1.342 5.683s.459 3.919 1.342 5.683l.211.422-.69.345-.52-2.079c-.224-.897-.689-1.717-1.343-2.371s-1.474-1.119-2.372-1.343l-2.628-.657.657 2.628c.224.898.689 1.718 1.343 2.372s1.474 1.119 2.372 1.343l1.804.451-2.623 1.312.895 1.789 2.552-1.277v2.382h2v-2.382l2.553 1.276.895-1.789-2.623-1.312 1.804-.451c.897-.223 1.717-.688 2.371-1.342s1.119-1.474 1.343-2.372l.657-2.628-2.628.657c-.898.224-1.718.689-2.372 1.343s-1.119 1.474-1.343 2.372z"/><path d="m11 45h14v2h-14z"/><path d="m22.095 57 .8-8h-9.79l.8 8z"/><path d="m5 13h13c1.654 0 3-1.346 3-3s-1.346-3-3-3c-.532 0-1.046.146-1.529.436-.295.177-.662.19-.97.032-.307-.157-.512-.461-.54-.806-.177-2.088-1.88-3.662-3.961-3.662-2.206 0-4 1.794-4 4 0 .298.045.613.143.99.095.368-.028.759-.316 1.007s-.692.311-1.044.163c-.25-.106-.513-.16-.783-.16-1.103 0-2 .897-2 2s.897 2 2 2z"/><path d="m46 54h4 11v-2h-18v2z"/></svg>