<?xml version="1.0" encoding="UTF-8"?>
<svg xmlns="http://www.w3.org/2000/svg" xmlns:xlink="http://www.w3.org/1999/xlink" width="18pt" height="18pt" viewBox="0 0 18 18" version="1.1">
<g id="surface1">
<path style=" stroke:none;fill-rule:nonzero;fill-opacity:1;" d="M 17.359375 7.25 C 17.359375 5.1875 15.761719 3.496094 13.738281 3.339844 C 13.035156 1.351562 11.144531 0 9 0 C 6.855469 0 4.964844 1.351562 4.261719 3.339844 C 2.238281 3.496094 0.640625 5.1875 0.640625 7.25 C 0.640625 8.300781 1.058594 9.292969 1.796875 10.027344 C 1.765625 10.210938 1.75 10.394531 1.75 10.578125 C 1.75 12.480469 3.296875 14.023438 5.195312 14.023438 L 7.0625 14.023438 L 7.0625 17.410156 C 7.0625 17.738281 7.328125 18 7.652344 18 L 10.535156 18 C 10.859375 18 11.121094 17.738281 11.121094 17.410156 L 11.121094 14.023438 L 12.804688 14.023438 C 14.703125 14.023438 16.25 12.480469 16.25 10.578125 C 16.25 10.394531 16.234375 10.210938 16.203125 10.027344 C 16.941406 9.292969 17.359375 8.300781 17.359375 7.25 Z M 10.117188 12.535156 C 10.007812 12.644531 9.945312 12.792969 9.945312 12.949219 L 9.945312 16.824219 L 8.242188 16.824219 L 8.242188 12.242188 C 8.242188 12.085938 8.179688 11.933594 8.066406 11.824219 L 7.042969 10.800781 L 7.230469 10.613281 L 7.957031 11.339844 C 8.125 11.507812 8.378906 11.558594 8.597656 11.46875 C 8.816406 11.375 8.960938 11.160156 8.960938 10.921875 L 8.960938 9.824219 L 9.222656 9.824219 L 9.222656 11.632812 C 9.222656 11.871094 9.367188 12.085938 9.585938 12.175781 C 9.808594 12.269531 10.0625 12.21875 10.230469 12.050781 L 10.769531 11.507812 L 10.957031 11.695312 Z M 15.183594 9.367188 C 15.003906 9.515625 14.929688 9.753906 14.992188 9.976562 C 15.042969 10.175781 15.070312 10.375 15.070312 10.578125 C 15.070312 11.828125 14.054688 12.847656 12.804688 12.847656 L 11.472656 12.847656 L 12.207031 12.113281 C 12.316406 12 12.378906 11.851562 12.378906 11.695312 C 12.378906 11.539062 12.316406 11.390625 12.207031 11.277344 L 11.1875 10.261719 C 10.972656 10.046875 10.632812 10.03125 10.402344 10.21875 L 10.402344 9.234375 C 10.402344 8.910156 10.136719 8.648438 9.8125 8.648438 L 8.371094 8.648438 C 8.046875 8.648438 7.785156 8.910156 7.785156 9.234375 L 7.785156 9.503906 L 7.644531 9.363281 C 7.535156 9.253906 7.386719 9.191406 7.230469 9.191406 C 7.074219 9.191406 6.925781 9.253906 6.8125 9.363281 L 5.792969 10.382812 C 5.566406 10.613281 5.566406 10.984375 5.792969 11.214844 L 7.0625 12.484375 L 7.0625 12.847656 L 5.195312 12.847656 C 3.945312 12.847656 2.929688 11.828125 2.929688 10.578125 C 2.929688 10.375 2.957031 10.175781 3.007812 9.976562 C 3.070312 9.753906 2.996094 9.515625 2.816406 9.367188 C 2.183594 8.84375 1.816406 8.070312 1.816406 7.25 C 1.816406 5.738281 3.046875 4.507812 4.558594 4.507812 C 4.597656 4.507812 4.636719 4.507812 4.671875 4.511719 C 4.953125 4.523438 5.199219 4.339844 5.269531 4.070312 C 5.707031 2.367188 7.238281 1.175781 9 1.175781 C 10.761719 1.175781 12.292969 2.367188 12.730469 4.070312 C 12.800781 4.339844 13.050781 4.519531 13.328125 4.511719 C 13.363281 4.507812 13.402344 4.507812 13.441406 4.507812 C 14.953125 4.507812 16.183594 5.738281 16.183594 7.25 C 16.183594 8.070312 15.816406 8.84375 15.183594 9.367188 Z M 15.183594 9.367188 "/>
</g>
</svg>
